<svg width="23" height="18" fill="none" xmlns="http://www.w3.org/2000/svg"><path d="M19.49 1.723a.059.059 0 00-.03-.028A18.952 18.952 0 0014.784.247a.07.07 0 00-.075.035c-.214.388-.408.787-.582 1.195a17.5 17.5 0 00-5.25 0A12.084 12.084 0 008.284.282.074.074 0 008.21.247a18.9 18.9 0 00-4.675 1.449.067.067 0 00-.031.026C.526 6.167-.29 10.502.11 14.785a.08.08 0 00.03.054 19.052 19.052 0 005.735 2.897.074.074 0 00.08-.027 13.56 13.56 0 001.174-1.907.072.072 0 00-.014-.085.072.072 0 00-.026-.016 12.547 12.547 0 01-1.792-.853.075.075 0 01-.036-.06.073.073 0 01.029-.062c.12-.09.24-.184.356-.279a.072.072 0 01.074-.01c3.759 1.715 7.829 1.715 11.543 0a.071.071 0 01.075.01c.115.094.236.189.357.279a.073.073 0 01-.007.122c-.572.334-1.172.619-1.792.852a.072.072 0 00-.042.042.074.074 0 00.003.06c.343.663.735 1.3 1.172 1.906a.073.073 0 00.08.028 18.99 18.99 0 005.745-2.897.074.074 0 00.03-.053c.48-4.95-.802-9.251-3.396-13.063zM7.69 12.178c-1.132 0-2.064-1.039-2.064-2.313 0-1.275.914-2.314 2.064-2.314 1.159 0 2.082 1.048 2.064 2.313 0 1.275-.914 2.314-2.064 2.314zm7.632 0c-1.132 0-2.064-1.039-2.064-2.313 0-1.275.914-2.314 2.064-2.314 1.159 0 2.082 1.048 2.064 2.313 0 1.275-.905 2.314-2.064 2.314z" fill="#fff"/></svg>