<svg width="20" height="21" viewBox="0 0 20 21" fill="none" xmlns="http://www.w3.org/2000/svg">
<path d="M10 2.79518C12.6667 2.79518 12.9833 2.79518 14.0417 2.8535C14.6766 2.86316 15.3051 2.98149 15.9 3.20337C16.3318 3.36585 16.7239 3.61859 17.0501 3.94469C17.3763 4.27079 17.6291 4.66273 17.7917 5.09434C18.0136 5.68902 18.132 6.31733 18.1417 6.95198C18.1917 8.00993 18.2 8.32648 18.2 10.9922C18.2 13.6578 18.2 13.9744 18.1417 15.0323C18.132 15.667 18.0136 16.2953 17.7917 16.89C17.6291 17.3216 17.3763 17.7135 17.0501 18.0396C16.7239 18.3657 16.3318 18.6185 15.9 18.7809C15.3051 19.0028 14.6766 19.1212 14.0417 19.1308C12.9833 19.1808 12.6667 19.1891 10 19.1891C7.33333 19.1891 7.01667 19.1891 5.95833 19.1308C5.32344 19.1212 4.69491 19.0028 4.1 18.7809C3.66824 18.6185 3.27615 18.3657 2.94993 18.0396C2.62371 17.7135 2.37088 17.3216 2.20833 16.89C1.98638 16.2953 1.868 15.667 1.85833 15.0323C1.80833 13.9744 1.8 13.6578 1.8 10.9922C1.8 8.32648 1.8 8.00993 1.85833 6.95198C1.868 6.31733 1.98638 5.68902 2.20833 5.09434C2.37088 4.66273 2.62371 4.27079 2.94993 3.94469C3.27615 3.61859 3.66824 3.36585 4.1 3.20337C4.69491 2.98149 5.32344 2.86316 5.95833 2.8535C7.01667 2.80351 7.33333 2.79518 10 2.79518ZM10 0.99585C7.28333 0.99585 6.94167 0.995849 5.875 1.05416C5.04603 1.07087 4.22597 1.22862 3.45 1.52066C2.78386 1.77447 2.17892 2.16617 1.67484 2.67007C1.17075 3.17397 0.778907 3.77869 0.525 4.44458C0.232857 5.22026 0.0750434 6.04002 0.0583331 6.86868C-2.54561e-07 7.93495 0 8.27649 0 10.9922C0 13.7078 -2.54561e-07 14.0494 0.0583331 15.1156C0.0750434 15.9443 0.232857 16.7641 0.525 17.5397C0.778907 18.2056 1.17075 18.8103 1.67484 19.3142C2.17892 19.8181 2.78386 20.2098 3.45 20.4637C4.22597 20.7557 5.04603 20.9135 5.875 20.9302C6.94167 20.9885 7.28333 20.9885 10 20.9885C12.7167 20.9885 13.0583 20.9885 14.125 20.9302C14.954 20.9135 15.774 20.7557 16.55 20.4637C17.2161 20.2098 17.8211 19.8181 18.3252 19.3142C18.8293 18.8103 19.2211 18.2056 19.475 17.5397C19.7625 16.7772 19.9203 15.9719 19.9417 15.1573C20 14.0494 20 13.7078 20 10.9922C20 8.27649 20 7.93495 19.9417 6.86868C19.925 6.04002 19.7671 5.22026 19.475 4.44458C19.2211 3.77869 18.8293 3.17397 18.3252 2.67007C17.8211 2.16617 17.2161 1.77447 16.55 1.52066C15.7872 1.23322 14.9816 1.07554 14.1667 1.05416C13.0583 0.995849 12.7167 0.99585 10 0.99585ZM10 5.86072C8.98472 5.86072 7.99225 6.16167 7.14807 6.72552C6.3039 7.28937 5.64595 8.09079 5.25742 9.02844C4.86889 9.96609 4.76723 10.9978 4.9653 11.9933C5.16337 12.9887 5.65228 13.903 6.37019 14.6206C7.08809 15.3383 8.00277 15.827 8.99854 16.025C9.99431 16.223 11.0264 16.1214 11.9644 15.733C12.9024 15.3446 13.7042 14.6869 14.2682 13.843C14.8323 12.9992 15.1333 12.0071 15.1333 10.9922C15.1333 10.3183 15.0006 9.65102 14.7426 9.02844C14.4846 8.40587 14.1065 7.84018 13.6298 7.36368C13.1531 6.88719 12.5872 6.50921 11.9644 6.25133C11.3416 5.99345 10.6741 5.86072 10 5.86072ZM10 14.3243C9.34073 14.3243 8.69626 14.1288 8.1481 13.7627C7.59994 13.3966 7.17269 12.8762 6.9204 12.2673C6.66811 11.6584 6.6021 10.9885 6.73072 10.3421C6.85933 9.69573 7.1768 9.10201 7.64298 8.63601C8.10915 8.17 8.7031 7.85265 9.3497 7.72408C9.9963 7.59551 10.6665 7.6615 11.2756 7.9137C11.8847 8.1659 12.4053 8.59298 12.7716 9.14094C13.1378 9.6889 13.3333 10.3331 13.3333 10.9922C13.3333 11.8759 12.9821 12.7234 12.357 13.3483C11.7319 13.9732 10.8841 14.3243 10 14.3243ZM15.3417 4.45291C15.1043 4.45291 14.8723 4.52326 14.675 4.65507C14.4776 4.78688 14.3238 4.97422 14.233 5.19341C14.1422 5.4126 14.1184 5.65379 14.1647 5.88648C14.211 6.11918 14.3253 6.33292 14.4931 6.50068C14.661 6.66844 14.8748 6.78269 15.1076 6.82897C15.3403 6.87526 15.5816 6.8515 15.8009 6.76071C16.0202 6.66992 16.2076 6.51617 16.3394 6.3189C16.4713 6.12164 16.5417 5.88971 16.5417 5.65246C16.5417 5.33432 16.4152 5.02921 16.1902 4.80425C15.9652 4.57929 15.6599 4.45291 15.3417 4.45291Z" fill="white"/>
</svg>
