<svg width="20" height="21" fill="none" xmlns="http://www.w3.org/2000/svg"><path d="M10 2.795c2.667 0 2.983 0 4.042.058a5.56 5.56 0 011.858.35 3.241 3.241 0 011.892 1.891c.222.595.34 1.223.35 1.858.05 1.058.058 1.374.058 4.04s0 2.982-.058 4.04a5.557 5.557 0 01-.35 1.858 3.241 3.241 0 01-1.892 1.89 5.558 5.558 0 01-1.858.35c-1.059.05-1.375.06-4.042.06s-2.983 0-4.042-.06a5.558 5.558 0 01-1.858-.35 3.24 3.24 0 01-1.892-1.89 5.555 5.555 0 01-.35-1.858c-.05-1.058-.058-1.374-.058-4.04s0-2.982.058-4.04c.01-.635.128-1.263.35-1.858A3.24 3.24 0 014.1 3.204a5.56 5.56 0 011.858-.35c1.059-.05 1.375-.059 4.042-.059zm0-1.8c-2.717 0-3.058 0-4.125.06a7.302 7.302 0 00-2.425.466A5.058 5.058 0 00.525 4.445a7.295 7.295 0 00-.467 2.424C0 7.935 0 8.276 0 10.992s0 3.057.058 4.124a7.31 7.31 0 00.467 2.424 5.056 5.056 0 002.925 2.924c.776.292 1.596.45 2.425.466 1.067.058 1.408.058 4.125.058s3.058 0 4.125-.058a7.303 7.303 0 002.425-.466 5.06 5.06 0 002.925-2.924 7.296 7.296 0 00.467-2.383C20 14.05 20 13.707 20 10.992c0-2.716 0-3.057-.058-4.123a7.296 7.296 0 00-.467-2.424A5.056 5.056 0 0016.55 1.52a7.302 7.302 0 00-2.383-.467C13.058.996 12.717.996 10 .996zm0 4.866a5.135 5.135 0 00-5.035 6.132A5.13 5.13 0 009 16.025a5.135 5.135 0 006.134-5.033A5.13 5.13 0 0010 5.861zm0 8.463a3.335 3.335 0 01-3.27-3.982 3.332 3.332 0 014.546-2.428A3.333 3.333 0 0110 14.324zm5.342-9.871a1.2 1.2 0 100 2.4 1.2 1.2 0 000-2.4z" fill="#fff"/></svg>