<svg width="24" height="14" viewBox="0 0 24 14" fill="none" xmlns="http://www.w3.org/2000/svg">
<path d="M0.363532 0.98542C0.130751 1.21389 0 1.52359 0 1.8465C0 2.1694 0.130751 2.4791 0.363532 2.70757L11.1365 13.2679C11.3696 13.4961 11.6856 13.6243 12.015 13.6243C12.3444 13.6243 12.6603 13.4961 12.8934 13.2679L23.6664 2.70757C23.886 2.47658 24.0055 2.17107 23.9998 1.85539C23.9941 1.53972 23.8637 1.23853 23.6359 1.01528C23.4082 0.792029 23.1009 0.664149 22.7789 0.658579C22.4569 0.653009 22.1452 0.770184 21.9096 0.98542L12.015 10.6847L2.12036 0.98542C1.88729 0.757234 1.57135 0.629066 1.24195 0.629066C0.912539 0.629066 0.596602 0.757234 0.363532 0.98542V0.98542Z" fill="white"/>
</svg>
