<svg width="20" height="21" fill="none" xmlns="http://www.w3.org/2000/svg"><g clip-path="url(#clip0_1_800)"><path d="M10.443.372C11.533.355 12.617.365 13.7.355c.065 1.275.524 2.574 1.458 3.476.932.924 2.25 1.347 3.532 1.49v3.354c-1.202-.04-2.41-.29-3.5-.807-.475-.214-.917-.491-1.35-.774-.006 2.434.01 4.865-.016 7.289a6.34 6.34 0 01-1.127 3.283c-1.09 1.598-2.982 2.64-4.925 2.672-1.192.068-2.382-.257-3.398-.856-1.683-.992-2.867-2.808-3.04-4.757a13.93 13.93 0 01-.01-1.24 6.244 6.244 0 012.152-4.133C4.857 8.151 6.79 7.58 8.6 7.917c.017 1.234-.032 2.467-.032 3.7-.827-.267-1.794-.192-2.516.31a2.885 2.885 0 00-1.137 1.457c-.173.423-.123.892-.113 1.34.198 1.368 1.513 2.517 2.917 2.392.93-.01 1.822-.55 2.307-1.34.157-.277.333-.56.342-.885.082-1.49.05-2.974.06-4.464.006-3.358-.01-6.707.015-10.055z" fill="#fff"/></g><defs><clipPath id="clip0_1_800"><path fill="#fff" transform="translate(0 .355)" d="M0 0h20v19.993H0z"/></clipPath></defs></svg>