<svg width="29" height="21" fill="none" xmlns="http://www.w3.org/2000/svg"><path d="M14.41 20.329c-3.197-.101-6.238-.18-9.28-.297a10.534 10.534 0 01-1.96-.28c-1.198-.28-2.027-1.002-2.453-2.183-.341-.952-.464-1.932-.554-2.928-.196-2.34-.196-4.68-.1-7.021.055-1.321.089-2.654.442-3.936.212-.767.47-1.517 1.092-2.071.655-.588 1.422-.94 2.296-.98C6.29.515 8.68.37 11.079.347c3.225-.033 6.457.012 9.683.073 1.395.028 2.8.101 4.184.28 1.265.168 2.212.874 2.716 2.105.386.946.532 1.937.616 2.945.218 2.525.224 5.05.1 7.575-.06 1.282-.122 2.57-.486 3.818-.415 1.433-1.294 2.38-2.762 2.704-.57.123-1.165.168-1.747.19-3.047.107-6.088.202-8.972.292zm-3.096-6.366c2.554-1.321 5.08-2.631 7.656-3.97-2.57-1.343-5.097-2.659-7.656-3.997v7.967z" fill="#fff"/></svg>